<?xml version="1.0" standalone="no"?>
<!DOCTYPE svg PUBLIC "-//W3C//DTD SVG 20010904//EN"
 "http://www.w3.org/TR/2001/REC-SVG-20010904/DTD/svg10.dtd">
<svg version="1.0" xmlns="http://www.w3.org/2000/svg"
 width="996.000000pt" height="990.000000pt" viewBox="0 0 996.000000 990.000000"
 preserveAspectRatio="xMidYMid meet">
<metadata>
Created by potrace 1.16, written by Peter Selinger 2001-2019
</metadata>
<g transform="translate(0.000000,990.000000) scale(0.100000,-0.100000)"
fill="#000000" stroke="none">
<path d="M4920 8812 c-25 -10 -81 -39 -125 -65 -192 -110 -253 -122 -451 -88
-146 25 -214 26 -261 5 -19 -9 -62 -49 -96 -87 -196 -223 -237 -252 -402 -282
-134 -24 -214 -44 -246 -60 -46 -24 -75 -74 -129 -215 -81 -214 -116 -256
-311 -369 -121 -70 -175 -118 -189 -170 -5 -20 -10 -90 -10 -156 -1 -235 -25
-307 -159 -465 -45 -52 -93 -119 -107 -148 -34 -67 -30 -100 36 -292 71 -206
69 -242 -24 -505 -20 -55 -36 -116 -36 -136 0 -52 40 -122 131 -229 132 -156
159 -234 159 -465 0 -66 5 -137 11 -158 14 -53 69 -102 190 -171 192 -108 228
-152 309 -366 28 -74 62 -149 77 -168 35 -47 92 -70 241 -97 187 -34 233 -54
317 -139 38 -39 100 -105 137 -147 37 -42 82 -83 101 -93 47 -22 124 -20 265
5 201 36 233 29 510 -121 143 -77 154 -75 415 69 136 75 202 84 383 51 132
-24 215 -25 259 -4 33 15 84 66 198 197 102 117 169 150 376 186 135 24 196
51 233 106 15 22 48 96 73 165 72 199 116 250 312 361 113 64 168 114 182 166
6 21 11 90 11 153 1 237 27 314 159 470 91 107 131 177 131 229 0 20 -23 101
-52 181 -49 138 -51 150 -51 245 0 95 2 107 51 245 29 80 52 161 52 181 0 52
-40 122 -131 229 -132 156 -158 233 -159 470 0 63 -5 132 -11 153 -14 53 -59
93 -185 166 -199 116 -234 157 -312 368 -27 73 -62 149 -77 169 -37 48 -94 72
-228 95 -242 42 -256 50 -471 293 -38 43 -84 85 -102 92 -46 19 -117 17 -258
-7 -134 -23 -227 -21 -292 6 -22 9 -96 48 -166 86 -146 81 -200 93 -278 61z
m299 -1003 c595 -71 1126 -512 1319 -1095 275 -826 -155 -1717 -978 -2030
-167 -64 -357 -96 -560 -96 -282 0 -497 52 -751 184 -440 227 -752 653 -845
1153 -28 150 -26 431 4 582 45 225 142 452 269 633 85 119 270 305 388 389
104 73 314 179 430 216 234 74 465 95 724 64z"/>
<path d="M3401 2938 c-146 -546 -313 -1173 -371 -1393 -59 -220 -106 -402
-104 -403 1 -2 163 91 359 208 196 116 362 213 369 216 8 3 86 -125 222 -365
115 -204 212 -367 215 -363 3 4 13 34 22 67 304 1144 582 2189 628 2359 32
121 58 221 56 221 -1 1 -46 27 -100 58 -139 79 -166 83 -323 57 -71 -11 -146
-23 -167 -26 -21 -3 -67 -1 -103 6 -93 18 -164 67 -258 181 -81 97 -154 169
-171 169 -6 0 -129 -447 -274 -992z"/>
<path d="M6295 3910 c-17 -10 -68 -64 -114 -120 -180 -218 -253 -243 -555
-191 -108 19 -136 21 -176 11 -36 -9 -162 -72 -247 -124 -1 -1 7 -33 17 -71
24 -89 530 -1989 617 -2320 37 -137 69 -253 73 -257 3 -4 66 99 139 230 275
486 284 503 298 497 8 -2 174 -100 369 -216 196 -116 357 -209 359 -207 1 2
-150 575 -336 1273 -186 699 -353 1325 -370 1393 -18 67 -35 122 -38 122 -3 0
-20 -9 -36 -20z"/>
</g>
</svg>
